<?xml version="1.0" encoding="iso-8859-1"?>
<!-- Generator: Adobe Illustrator 19.1.0, SVG Export Plug-In . SVG Version: 6.00 Build 0)  -->
<svg xmlns="http://www.w3.org/2000/svg" xmlns:xlink="http://www.w3.org/1999/xlink" version="1.1" id="Capa_1" x="0px" y="0px" viewBox="0 0 75.077 75.077" style="enable-background:new 0 0 75.077 75.077;" xml:space="preserve" width="512px" height="512px">
<path d="M65.06,0H10.017C8.948,0,8.08,0.867,8.08,1.936v71.204c0,1.069,0.867,1.937,1.937,1.937H65.06  c1.069,0,1.937-0.867,1.937-1.937V1.936C66.997,0.867,66.129,0,65.06,0z M63.124,71.204h-51.17V3.873h51.17V71.204z M27.387,25.568  H27.24c-0.917,0-1.66,0.743-1.66,1.66c0,0.917,0.743,1.66,1.66,1.66h1.807c0.917,0,1.66-0.752,1.66-1.669V21.84h3.133l4.283,5.551  l-3.089,3.803h-0.422c-0.917,0-1.66,0.743-1.66,1.66c0,0.917,0.743,1.66,1.66,1.66h1.212c0.5,0,0.973-0.225,1.289-0.614l3.093-3.809  l2.913,3.776c0.314,0.407,0.8,0.646,1.314,0.646h1.013c0.917,0,1.66-0.743,1.66-1.66c0-0.917-0.743-1.66-1.66-1.66H45.25  l-2.893-3.75l2.47-3.041h0.222c0.917,0,1.66-0.743,1.66-1.66c0-0.917-0.743-1.66-1.66-1.66h-1.013c-0.5,0-0.973,0.225-1.289,0.614  l-2.474,3.047l-2.813-3.646c1.715-0.978,2.873-2.824,2.873-4.935c0-3.13-2.547-5.677-5.677-5.677h-5.609H27.24  c-0.917,0-1.66,0.743-1.66,1.66c0,0.917,0.743,1.66,1.66,1.66h0.148V25.568z M37.013,16.163c0,1.3-1.057,2.357-2.358,2.357h-3.949  v-4.715h3.949C35.956,13.806,37.013,14.863,37.013,16.163z M17.172,43.255c0-0.917,0.743-1.66,1.66-1.66h38.549  c0.917,0,1.66,0.743,1.66,1.66c0,0.917-0.743,1.66-1.66,1.66H18.832C17.915,44.915,17.172,44.172,17.172,43.255z M17.172,52.584  c0-0.917,0.743-1.66,1.66-1.66h38.549c0.917,0,1.66,0.743,1.66,1.66c0,0.917-0.743,1.66-1.66,1.66H18.832  C17.915,54.244,17.172,53.501,17.172,52.584z M17.172,61.913c0-0.917,0.743-1.66,1.66-1.66h38.549c0.917,0,1.66,0.743,1.66,1.66  c0,0.917-0.743,1.66-1.66,1.66H18.832C17.915,63.573,17.172,62.83,17.172,61.913z" fill="#428dff"/>
<g>
</g>
<g>
</g>
<g>
</g>
<g>
</g>
<g>
</g>
<g>
</g>
<g>
</g>
<g>
</g>
<g>
</g>
<g>
</g>
<g>
</g>
<g>
</g>
<g>
</g>
<g>
</g>
<g>
</g>
</svg>
