<?xml version="1.0" encoding="iso-8859-1"?>
<!-- Generator: Adobe Illustrator 16.0.0, SVG Export Plug-In . SVG Version: 6.00 Build 0)  -->
<!DOCTYPE svg PUBLIC "-//W3C//DTD SVG 1.1//EN" "http://www.w3.org/Graphics/SVG/1.1/DTD/svg11.dtd">
<svg xmlns="http://www.w3.org/2000/svg" xmlns:xlink="http://www.w3.org/1999/xlink" version="1.1" id="Capa_1" x="0px" y="0px" width="512px" height="512px" viewBox="0 0 114.882 114.881" style="enable-background:new 0 0 114.882 114.881;" xml:space="preserve">
<g>
	<path d="M68.222,26.486c1.655,0,3.026,1.356,3.026,3.026v2.654h2.648c1.667,0,3.026,1.354,3.026,3.026   c0,1.67-1.359,3.026-3.026,3.026h-2.648v2.65c0,1.67-1.371,3.026-3.026,3.026c-1.679,0-3.026-1.356-3.026-3.026v-2.65h-2.653   c-1.673,0-3.026-1.356-3.026-3.026c0-1.673,1.354-3.026,3.026-3.026h2.653v-2.654C65.195,27.836,66.543,26.486,68.222,26.486z    M90.115,12.998v98.857c0,1.667-1.371,3.026-3.026,3.026H8.027c-1.664,0-3.026-1.359-3.026-3.026V12.998   c0-1.673,1.362-3.026,3.026-3.026h19.86V3.026c0-1.67,1.36-3.026,3.026-3.026h33.289c1.655,0,3.027,1.356,3.027,3.026v6.939h19.859   C88.756,9.971,90.115,11.319,90.115,12.998z M33.939,18.164h27.237V6.059H33.939V18.164z M84.062,16.024H67.229v5.166   c0,1.673-1.372,3.026-3.027,3.026H30.913c-1.667,0-3.026-1.354-3.026-3.026v-5.166H11.053v92.805h73.009V16.024z M74.605,50.697   H20.507c-1.676,0-3.026,1.356-3.026,3.026c0,1.673,1.351,3.026,3.026,3.026h54.098c1.667,0,3.026-1.354,3.026-3.026   C77.632,52.053,76.272,50.697,74.605,50.697z M74.605,64.699H20.507c-1.676,0-3.026,1.348-3.026,3.027   c0,1.666,1.351,3.025,3.026,3.025h54.098c1.667,0,3.026-1.359,3.026-3.025C77.632,66.046,76.272,64.699,74.605,64.699z    M74.605,78.696H20.507c-1.676,0-3.026,1.359-3.026,3.026s1.351,3.026,3.026,3.026h54.098c1.667,0,3.026-1.359,3.026-3.026   C77.632,80.043,76.272,78.696,74.605,78.696z M74.605,92.693H20.507c-1.676,0-3.026,1.348-3.026,3.026   c0,1.667,1.351,3.026,3.026,3.026h54.098c1.667,0,3.026-1.359,3.026-3.026C77.632,94.041,76.272,92.693,74.605,92.693z    M103.592,46.116c-3.476,0-6.289,2.819-6.289,6.289v48.575c0,2.352,1.348,4.326,3.263,5.402v5.473c0,1.667,1.348,3.026,3.026,3.026   c1.667,0,3.026-1.359,3.026-3.026v-5.473c1.915-1.076,3.263-3.051,3.263-5.402V52.405   C109.881,48.935,107.056,46.116,103.592,46.116z" fill="#a4c2f7"/>
</g>
<g>
</g>
<g>
</g>
<g>
</g>
<g>
</g>
<g>
</g>
<g>
</g>
<g>
</g>
<g>
</g>
<g>
</g>
<g>
</g>
<g>
</g>
<g>
</g>
<g>
</g>
<g>
</g>
<g>
</g>
</svg>
